<svg id="Capa_1" enable-background="new 0 0 512 512" height="512" viewBox="0 0 512 512" width="512" xmlns="http://www.w3.org/2000/svg"><g><path d="m256 256h-15v216.27h15 15v-216.27z" fill="#704c55"/><path d="m256 256h15v216.27h-15z" fill="#5a344b"/><path d="m319.003 280.009-63.003 47.241-63.003-47.241-17.988 23.994 80.991 60.747 80.991-60.747z" fill="#9b786f"/><path d="m319.003 280.009-63.003 47.241v37.5l80.991-60.747z" fill="#704c55"/><path d="m256 0c-74.559 0-135 61.441-135 136s60.441 135 135 135 135-60.441 135-135-60.441-136-135-136z" fill="#5ab267"/><path d="m391 136c0-74.559-60.441-136-135-136v271c74.559 0 135-60.441 135-135z" fill="#288c64"/><path d="m482 436.322c0-.103 0-.22 0-.322 0-24.917-21.405-46.348-46.322-45-14.063-18.735-36.064-30-59.678-30s-45.615 11.265-59.678 30c-.103 0-.22 0-.322 0-24.814 0-45 20.186-45 45v.322c-5.88 4.413-10.708 9.811-15 15.591-4.292-5.781-9.12-11.179-15-15.591 0-.103 0-.22 0-.322 0-24.814-20.186-45-45-45-.103 0-.22 0-.322 0-14.063-18.735-36.064-30-59.678-30s-45.615 11.265-59.678 30c-25.151-1.421-46.322 20.083-46.322 45v.322c-18.735 14.063-30 37.065-30 60.678v15h241 15 15 241v-15c0-23.613-11.265-46.615-30-60.678z" fill="#8cd96b"/><path d="m512 512v-15c0-23.613-11.265-46.615-30-60.678 0-.103 0-.22 0-.322 0-24.917-21.405-46.348-46.322-45-14.063-18.735-36.064-30-59.678-30s-45.615 11.265-59.678 30c-.103 0-.22 0-.322 0-24.814 0-45 20.186-45 45v.322c-5.88 4.413-10.708 9.811-15 15.591v60.087h15z" fill="#5ab267"/><path d="m376 331c-41.353 0-75-33.647-75-75s33.647-75 75-75 75 33.647 75 75-33.647 75-75 75z" fill="#5ab267"/><path d="m136 331c-41.353 0-75-33.647-75-75s33.647-75 75-75 75 33.647 75 75-33.647 75-75 75z" fill="#8cd96b"/></g></svg>